<?xml version="1.0" standalone="no"?>
<!DOCTYPE svg PUBLIC "-//W3C//DTD SVG 20010904//EN"
 "http://www.w3.org/TR/2001/REC-SVG-20010904/DTD/svg10.dtd">
<svg version="1.0" xmlns="http://www.w3.org/2000/svg"
 width="180.000000pt" height="180.000000pt" viewBox="0 0 180.000000 180.000000"
 preserveAspectRatio="xMidYMid meet">

<g transform="translate(0.000000,180.000000) scale(0.100000,-0.100000)"
fill="#000000" stroke="none">
<path d="M555 1576 c-106 -34 -205 -99 -230 -153 -17 -34 -17 -40 -1 -90 17
-52 17 -53 -6 -83 -27 -37 -17 -63 26 -68 14 -2 26 -5 26 -8 0 -3 -11 -26 -23
-52 -13 -26 -30 -69 -38 -97 -19 -67 -19 -303 0 -370 50 -178 159 -276 356
-321 117 -28 389 -25 497 4 147 40 246 110 292 206 71 146 74 406 9 590 -54
151 -257 257 -518 273 l-100 6 0 31 c0 30 -2 31 -46 34 -41 3 -47 6 -62 38
-32 65 -97 87 -182 60z m623 -628 c30 -30 -4 -77 -41 -57 -29 17 -15 69 18 69
6 0 16 -5 23 -12z m-473 -29 c5 -13 1 -27 -8 -36 -21 -21 -57 -8 -57 21 0 12
3 26 7 29 15 15 52 6 58 -14z m485 -147 c0 -17 -59 -90 -93 -116 -49 -38 -111
-56 -187 -56 -54 0 -78 6 -127 30 -56 28 -152 115 -140 127 6 5 288 19 455 21
50 1 92 -2 92 -6z"/>
</g>
</svg>
